<?xml version="1.0" encoding="UTF-8"?>
<svg width="120px" height="30px" viewBox="0 0 120 30" version="1.1" xmlns="http://www.w3.org/2000/svg" xmlns:xlink="http://www.w3.org/1999/xlink">
    <!-- Generator: Sketch 46.2 (44496) - http://www.bohemiancoding.com/sketch -->
    <title>Logo@2x</title>
    <desc>Created with Sketch.</desc>
    <defs></defs>
    <g id="Page-1" stroke="none" stroke-width="1" fill="none" fill-rule="evenodd">
        <g id="Homepage---1440" transform="translate(-171.000000, -25.000000)" fill-rule="nonzero" fill="#000000">
            <g id="Nav" transform="translate(1.000000, 0.000000)">
                <path d="M225.023788,47.3631216 C225.023788,49.7125989 225.06427,51.4751685 227.967716,51.8278671 L227.967716,52.2193441 C224.298329,52.9742914 221.286288,54.0129979 217.787181,54.9996922 L217.787181,51.3185162 C215.538513,53.2765165 213.207916,54.9996922 210.018849,54.9996922 C208.587848,54.9996922 206.911708,54.4512552 206.053237,53.3159104 C205.194444,52.1799501 205.153641,50.5743406 205.153641,49.2426419 L205.153641,40.5088893 C205.153641,39.5689752 205.194444,38.6290612 204.908501,37.6891472 C204.458703,36.2007961 203.559107,35.9656637 202.046179,35.8874914 L202.046179,35.4960144 C205.521511,35.3784482 208.95604,34.9084912 212.390248,34.3994481 L212.390248,48.5766386 C212.390248,49.3599003 212.349124,50.4958606 212.799243,51.1615561 C213.207916,51.8275593 214.066709,52.1799501 214.843253,52.1799501 C216.029114,52.1799501 216.969192,51.4751685 217.787181,50.6919068 L217.787181,40.5088893 C217.787181,39.5689752 217.827984,38.6290612 217.54172,37.6891472 C217.092243,36.2007961 216.192326,35.9656637 214.67972,35.8874914 L214.67972,35.4960144 C218.155052,35.3784482 221.589259,34.9084912 225.023788,34.3994481 L225.023788,47.3631216 Z M264.194768,47.3237276 L264.684726,47.5585523 C262.681519,51.8666455 259.615182,54.9996922 254.422585,54.9996922 C248.371838,54.9996922 243.997232,50.8091652 243.997232,45.0133365 C243.997232,38.9032797 249.189507,34.3997558 255.444912,34.3997558 C259.328596,34.3997558 264.072037,36.6319747 264.072037,40.8618956 C264.072037,42.7411082 262.722643,44.3473332 260.678633,44.3473332 C258.634622,44.3473332 257.244746,42.8195882 257.244746,40.900674 C257.244746,39.6474553 257.980487,38.5121105 257.980487,37.2191902 C257.980487,35.848713 256.917036,34.908799 255.526839,34.908799 C252.174559,34.908799 251.111751,39.8041076 251.111751,42.2323728 C251.111751,46.3835059 253.319616,49.9868174 258.062094,49.9868174 C260.556223,49.9868174 262.477825,49.0472111 264.194768,47.3237276 Z M287.587476,51.2400361 C287.669083,53.1201719 287.75101,53.942212 290,54.0994799 L290,54.4909568 L278.42991,54.4909568 L278.42991,54.0994799 C280.35119,53.9034336 280.35119,52.8459534 280.35119,51.2403439 L280.35119,40.900674 C280.35119,40.0783262 280.35119,39.0599321 279.819786,38.3551504 C279.410791,37.8067134 278.715532,37.4934087 278.020594,37.4934087 C276.834734,37.4934087 275.731123,38.2372765 274.87233,38.9423659 L274.87233,50.2607282 C274.87233,51.9845194 274.504459,53.942212 276.793931,54.0994799 L276.793931,54.4909568 L264.365049,54.4909568 L264.365049,54.0994799 C265.345929,54.0603937 266.409059,54.0209998 267.062873,53.2374304 C267.717329,52.4541687 267.635401,50.417996 267.635401,49.4777742 L267.635401,33.381054 C267.635401,30.7570504 267.594598,28.250613 264.160069,28.1721329 L264.119587,27.7415698 C267.757811,26.9973943 271.355873,26.1359603 274.872008,25 L274.872008,38.3157565 C277.243408,36.4359285 279.859947,34.3994481 283.089818,34.3994481 C286.769487,34.3994481 287.546352,36.8667993 287.546352,39.8822799 L287.546352,50.2604204 C287.546352,50.5743406 287.587476,50.9264237 287.587476,51.2400361 Z M202.54417,28.7596561 C201.399434,28.8378284 200.213895,28.9166162 199.477833,29.8565303 C198.619361,30.9530966 198.742092,33.3813618 198.742092,34.7127528 L198.742092,48.2245555 C198.742092,49.5953404 198.578558,51.8278671 199.477833,53.0026057 C200.213895,53.942212 201.399434,54.0206921 202.54417,54.0988643 L202.54417,54.4906491 L187.703085,54.4906491 L187.703085,54.0988643 C190.810547,53.668609 190.687816,51.749387 190.687816,49.2426419 L190.687816,46.8516163 L190.687816,46.1163659 L190.687816,44.6501739 C190.687816,42.8608287 189.729104,40.9585338 187.703085,40.9394524 C187.634973,40.9388369 184.841406,40.9394524 184.841406,40.9394524 C184.841406,40.9394524 184.905663,40.9394524 184.841406,40.9394524 C182.791612,40.9394524 181.889767,42.8734471 181.856354,44.652636 C181.848,45.1170533 181.856354,45.6076305 181.856354,46.1160581 L181.856354,48.1451522 L181.856354,48.8899433 C181.856354,49.9865096 181.815872,51.8272516 182.388079,52.8453379 C182.919483,53.7461658 183.859883,53.9419042 184.841406,54.0985566 L184.841406,54.4903413 L170,54.4903413 L170,54.0985566 C171.144736,54.0206921 172.330275,53.942212 173.066337,53.002298 C173.924809,51.8666455 173.802399,49.5559465 173.802399,48.2242478 L173.802399,32.8717031 C173.802399,31.8145306 173.720472,30.7176565 173.066337,29.8562225 C172.371399,28.9163085 171.103933,28.8378284 170,28.7596561 L170,28.3678714 L184.841406,28.3678714 L184.841406,28.7596561 C181.902619,29.1871416 181.840932,31.0100331 181.853784,33.3114991 C181.854747,33.5398607 181.856354,33.7709921 181.856354,34.0076633 L181.856354,35.3390543 C181.856354,35.8477897 181.848,36.338367 181.856354,36.8027842 C181.889446,38.5745868 182.791612,40.4698031 184.84237,40.4698031 L187.70437,40.4698031 C189.760268,40.4698031 190.688137,38.5610452 190.688137,36.801861 C190.688137,36.6092001 190.687816,35.5037086 190.687816,35.3390543 L190.687816,34.6041117 L190.687816,34.0076633 C190.687816,32.911097 190.728619,31.0703551 190.156091,30.0522687 C189.624686,29.1511331 188.725412,28.9163085 187.703085,28.7596561 L187.703085,28.3678714 L202.54417,28.3678714 L202.54417,28.7596561 Z M244.391447,51.749387 L244.637551,52.0626917 C242.470489,53.5898212 240.099089,55 237.319338,55 C235.847535,55 234.416213,54.6476092 233.271477,53.7464735 C231.554213,52.4153903 231.431482,50.4173805 231.431482,48.4593802 L231.431482,36.7492332 L228.131571,36.7492332 C228.129001,36.5848867 228.131571,36.4999436 228.131571,36.2731208 C233.120474,35.3615212 237.024399,32.0995209 238.667768,27.5735302 L238.667768,34.9475774 L243.819561,34.9475774 C243.250567,35.7188362 242.797235,36.7492332 242.797235,36.7492332 L238.667447,36.7492332 L238.667447,48.0288171 C238.667447,50.4173805 239.239975,52.1799501 242.060851,52.1799501 C242.919323,52.1799501 243.573779,52.0236056 244.391447,51.749387 Z" id="Logo"></path>
            </g>
        </g>
    </g>
</svg>